<svg xmlns="http://www.w3.org/2000/svg" viewBox="0 0 352.91 265.92"><defs><style>.cls-1{fill:#6636ce;}.cls-2{fill:#4d378c;}.cls-3{fill:#7c52ef;}.cls-4{fill:#ffa840;}.cls-5{fill:#ffc943;}.cls-6{fill:#ff833e;}.cls-7{fill:#ad4825;}.cls-8{fill:#8f78ff;}.cls-9{fill:#f6f5ff;}.cls-10{font-size:41.42px;fill:#3c2e6d;font-family:Gotham-Black, Gotham Black;font-weight:800;}.cls-11{letter-spacing:-0.02em;}.cls-12{letter-spacing:-0.03em;}.cls-13{letter-spacing:-0.05em;}</style></defs><g id="Layer_2" data-name="Layer 2"><g id="TEXTS"><path class="cls-1" d="M150,110S113.41,84.15,23.63,0c0,0-10.13,31.12,11.75,54s68.27,56,68.27,56S57,80.3,21.25,54.07c0,0-7.92,22.67,17.61,40.82,18.24,13,66.71,37.7,66.71,37.7L27.05,98.68S26.7,115,40.25,126.16s64.27,22.58,64.27,22.58L36.77,137.05s3.83,14.56,16.33,21.07,32.74,6.07,52.64,6.78l-49.16,4.69s6.16,11.46,17.11,13.55,36-4.43,36-4.43L77.6,190.09s15.58,15.46,51.07,0S150,110,150,110Z"/><path class="cls-2" d="M114.68,152.3a61.58,61.58,0,0,0,13.16,38.13l.83-.34C164.16,174.63,150,110,150,110s-3.21-2.26-10-7.63A61.81,61.81,0,0,0,114.68,152.3Z"/><path class="cls-3" d="M53.1,158.12c5.89,3.07,13.5,4.58,22,5.41a98.83,98.83,0,0,1-12.65-22.06l-25.64-4.42S40.6,151.61,53.1,158.12Z"/><path class="cls-3" d="M73.69,183.14c4.86.93,12.5.15,19.5-1a108.11,108.11,0,0,1-15-14.63l-21.66,2.07S62.74,181.05,73.69,183.14Z"/><path class="cls-3" d="M40.25,126.16c4.1,3.37,11.61,6.76,20.1,9.87a98.16,98.16,0,0,1-5.14-25.19L27.05,98.68S26.7,115,40.25,126.16Z"/><path class="cls-3" d="M35.38,54A304.5,304.5,0,0,0,59.06,75.55a87.46,87.46,0,0,1,15-29.25C59.59,33.32,42.83,18,23.63,0,23.63,0,13.5,31.12,35.38,54Z"/><path class="cls-3" d="M38.86,94.89c4.12,2.94,9.8,6.47,16.1,10.18a99.26,99.26,0,0,1,2.93-25.26C45.86,71.63,33,62.67,21.25,54.07,21.25,54.07,13.33,76.74,38.86,94.89Z"/><path class="cls-3" d="M95.28,183.81,77.6,190.09s11,10.92,35.6,5.22A127.5,127.5,0,0,1,95.28,183.81Z"/><path class="cls-3" d="M47.69,31.7l80.91,69S85.82,75.11,47.69,31.7Z"/><path class="cls-3" d="M57.11,52.44l55.71,44.75S75.26,74.81,57.89,58.07,57.11,52.44,57.11,52.44Z"/><path class="cls-3" d="M47.69,79l51.79,32.89S62.81,93.63,50,84.59,47.69,79,47.69,79Z"/><path class="cls-3" d="M42.44,108.81l56.11,24.82s-39-12.57-53-19.6S42.44,108.81,42.44,108.81Z"/><path class="cls-3" d="M41.88,117.48l49,20.14s-33.95-10-46.24-15.69S41.88,117.48,41.88,117.48Z"/><path class="cls-3" d="M40.31,85.7l46.1,26S54,97.64,42.52,90.45,40.31,85.7,40.31,85.7Z"/><path class="cls-3" d="M53.26,145.48l48.3,6.67S61.3,150.67,53.26,145.48Z"/><path class="cls-3" d="M61.59,153.11l37.3,3.26s-23.11.15-36.07-1.63S61.59,153.11,61.59,153.11Z"/><path class="cls-3" d="M71.54,172.3l37.28-3.71S81.1,175.52,71.54,172.3Z"/><path class="cls-3" d="M79.89,176.74l25.89-3.59A66.78,66.78,0,0,1,79.89,176.74Z"/><path class="cls-3" d="M92.52,189.16l21.11-7.87S100,189.44,92.52,189.16Z"/><path class="cls-3" d="M99.7,192.15l15-6.52S105.93,192.89,99.7,192.15Z"/><path class="cls-1" d="M202.88,110S239.5,84.15,329.28,0c0,0,10.14,31.12-11.75,54s-68.27,56-68.27,56,46.63-29.71,82.4-55.94c0,0,7.92,22.67-17.61,40.82-18.24,13-66.7,37.7-66.7,37.7l78.52-33.91s.34,16.36-13.21,27.48-64.27,22.58-64.27,22.58l67.75-11.69s-3.82,14.56-16.33,21.07-32.74,6.07-52.64,6.78l49.16,4.69s-6.16,11.46-17.11,13.55-36-4.43-36-4.43l32.05,11.38s-15.57,15.46-51.07,0S202.88,110,202.88,110Z"/><path class="cls-2" d="M238.23,152.3a61.58,61.58,0,0,1-13.16,38.13l-.83-.34C188.75,174.63,202.88,110,202.88,110s3.2-2.26,10-7.63A61.81,61.81,0,0,1,238.23,152.3Z"/><path class="cls-3" d="M299.81,158.12c-5.89,3.07-13.49,4.58-22,5.41a98.83,98.83,0,0,0,12.65-22.06l25.64-4.42S312.32,151.61,299.81,158.12Z"/><path class="cls-3" d="M279.22,183.14c-4.86.93-12.5.15-19.49-1a108.58,108.58,0,0,0,14.94-14.63l21.66,2.07S290.17,181.05,279.22,183.14Z"/><path class="cls-3" d="M312.66,126.16c-4.1,3.37-11.61,6.76-20.09,9.87a98.56,98.56,0,0,0,5.13-25.19l28.17-12.16S326.21,115,312.66,126.16Z"/><path class="cls-3" d="M317.53,54a302.68,302.68,0,0,1-23.68,21.58,87.46,87.46,0,0,0-15-29.25c14.5-13,31.26-28.3,50.46-46.3C329.28,0,339.42,31.12,317.53,54Z"/><path class="cls-3" d="M314.05,94.89c-4.12,2.94-9.8,6.47-16.1,10.18A99.26,99.26,0,0,0,295,79.81c12-8.18,24.92-17.14,36.64-25.74C331.66,54.07,339.58,76.74,314.05,94.89Z"/><path class="cls-3" d="M257.63,183.81l17.68,6.28s-11,10.92-35.6,5.22A127.5,127.5,0,0,0,257.63,183.81Z"/><path class="cls-3" d="M305.22,31.7l-80.91,69S267.09,75.11,305.22,31.7Z"/><path class="cls-3" d="M295.8,52.44,240.1,97.19S277.65,74.81,295,58.07,295.8,52.44,295.8,52.44Z"/><path class="cls-3" d="M305.22,79l-51.79,32.89S290.1,93.63,303,84.59,305.22,79,305.22,79Z"/><path class="cls-3" d="M310.47,108.81l-56.11,24.82s39-12.57,53-19.6S310.47,108.81,310.47,108.81Z"/><path class="cls-3" d="M311,117.48l-49,20.14s33.95-10,46.25-15.69S311,117.48,311,117.48Z"/><path class="cls-3" d="M312.61,85.7l-46.11,26s32.41-14,43.89-21.21S312.61,85.7,312.61,85.7Z"/><path class="cls-3" d="M299.65,145.48l-48.29,6.67S291.61,150.67,299.65,145.48Z"/><path class="cls-3" d="M291.32,153.11,254,156.37s23.11.15,36.08-1.63S291.32,153.11,291.32,153.11Z"/><path class="cls-3" d="M281.37,172.3l-37.27-3.71S271.81,175.52,281.37,172.3Z"/><path class="cls-3" d="M273,176.74l-25.89-3.59A66.78,66.78,0,0,0,273,176.74Z"/><path class="cls-3" d="M260.39,189.16l-21.11-7.87S252.91,189.44,260.39,189.16Z"/><path class="cls-3" d="M253.21,192.15l-15-6.52S247,192.89,253.21,192.15Z"/><circle class="cls-4" cx="176.46" cy="146.08" r="55.67" transform="translate(-41.99 77.1) rotate(-22.09)"/><path class="cls-5" d="M225.62,120l-75.27,75.27a55.11,55.11,0,0,0,9.39,3.94l69.83-69.82A55.14,55.14,0,0,0,225.62,120Z"/><path class="cls-5" d="M221.83,113.85A55.71,55.71,0,0,0,188.5,91.74l-66.39,66.38a55.74,55.74,0,0,0,22.11,33.34Z"/><circle class="cls-5" cx="176.46" cy="146.08" r="45.34" transform="translate(-42.08 77.39) rotate(-22.17)"/><circle class="cls-6" cx="176.46" cy="146.08" r="43.08" transform="translate(-42.1 77.45) rotate(-22.19)"/><path class="cls-4" d="M213.4,124l-59,59c1,.56,1.91,1.1,2.91,1.59L215,126.91C214.5,125.92,214,125,213.4,124Z"/><path class="cls-4" d="M196.08,107.77l-57.94,57.94a43.13,43.13,0,0,0,12.17,14.55l60.32-60.33A43,43,0,0,0,196.08,107.77Z"/><path class="cls-7" d="M195.44,149.51a13.79,13.79,0,0,0-4.16-3,12.25,12.25,0,0,0,3-2.24,10.47,10.47,0,0,0,2.82-7.4,11.79,11.79,0,0,0-6.56-10.76,14.58,14.58,0,0,0-4.68-1.44v-8.32h-8.21v8.08h-2.89v-8.08h-8.2v8.08H154.74v8.2h7.65V163.7h-7.65v8.21h11.81v4.28h8.2v-4.28h2.89v4.28h8.21v-4.51a17.07,17.07,0,0,0,5.42-1.59,13.36,13.36,0,0,0,5.52-4.94,13.18,13.18,0,0,0,1.92-7A12.13,12.13,0,0,0,195.44,149.51Zm-14.69-16.88a6.55,6.55,0,0,1,4.24,1.31,4.8,4.8,0,0,1,1.61,3.94,4.88,4.88,0,0,1-1.61,4,6.55,6.55,0,0,1-4.24,1.31h-7.94V132.63Zm5.72,29.26a6.42,6.42,0,0,1-4.85,1.81h-8.81V151.19h8.81a7.11,7.11,0,0,1,3.53.81,5.81,5.81,0,0,1,2.26,2.22,6.47,6.47,0,0,1,.8,3.23A6.17,6.17,0,0,1,186.47,161.89Z"/><polygon class="cls-6" points="200.85 25.5 201.44 69.11 165.01 80.87 173.29 69.11 200.85 25.5"/><circle class="cls-4" cx="219.04" cy="33.46" r="4.13"/><circle class="cls-4" cx="176.46" cy="19.3" r="4.13"/><path class="cls-6" d="M196.75,25.5a4.13,4.13,0,1,0,4.13-4.13A4.13,4.13,0,0,0,196.75,25.5Z"/><polygon class="cls-6" points="152.06 25.5 151.47 69.11 187.9 80.87 179.63 69.11 152.06 25.5"/><polygon class="cls-7" points="151.67 54.46 159.45 62.24 169.15 52.54 162.59 42.16 158.05 50.36 151.8 45.1 151.67 54.46"/><polygon class="cls-7" points="201.25 54.46 193.47 62.24 183.77 52.54 190.32 42.16 194.87 50.36 201.12 45.1 201.25 54.46"/><polygon class="cls-4" points="219.04 33.46 193.87 54.98 176.46 21.42 159.05 54.98 133.87 33.46 146.16 76.12 176.18 80.79 176.18 80.87 176.4 80.84 176.46 80.87 176.52 80.84 176.73 80.87 176.73 80.79 206.76 76.12 219.04 33.46"/><polygon class="cls-5" points="150.21 71.52 143.59 48.56 160.63 63.13 176.46 32.64 192.28 63.13 209.32 48.56 202.71 71.52 150.21 71.52"/><rect class="cls-6" x="146.16" y="76.12" width="60.6" height="8.93"/><rect class="cls-7" x="146.16" y="76.12" width="60.6" height="2.63"/><circle class="cls-4" cx="133.87" cy="33.46" r="4.13"/><path class="cls-6" d="M156.16,25.5A4.13,4.13,0,1,1,152,21.37,4.13,4.13,0,0,1,156.16,25.5Z"/><ellipse class="cls-6" cx="176.46" cy="59.12" rx="7.87" ry="14.61"/><path class="cls-4" d="M176.46,71.73c-2.78,0-5.87-5.18-5.87-12.61s3.09-12.61,5.87-12.61,5.86,5.18,5.86,12.61S179.23,71.73,176.46,71.73Z"/><path class="cls-5" d="M176.46,46.51c-2.22,0-4.62,3.29-5.51,8.38.5,6,3.12,10,5.51,10s5-4,5.5-10C181.07,49.8,178.67,46.51,176.46,46.51Z"/><path class="cls-1" d="M176.46,69.73c-1,0-3.87-3.65-3.87-10.61s2.87-10.61,3.87-10.61,3.86,3.64,3.86,10.61S177.45,69.73,176.46,69.73Z"/><path class="cls-8" d="M176.46,48.51c-.82,0-2.89,2.45-3.62,7.16.73,4.72,2.8,7.17,3.62,7.17s2.88-2.45,3.61-7.17C179.34,51,177.27,48.51,176.46,48.51Z"/><path class="cls-9" d="M177.82,53.18c0,1.35-.61,2.45-1.36,2.45s-1.37-1.1-1.37-2.45.61-2.44,1.37-2.44S177.82,51.83,177.82,53.18Z"/><ellipse class="cls-6" cx="153.49" cy="64.06" rx="5.9" ry="10.96" transform="translate(-12.73 69.92) rotate(-24.67)"/><path class="cls-4" d="M157.44,72.66c-1.89.87-5.62-1.7-7.95-6.77s-1.84-9.56,0-10.43,5.63,1.69,8,6.76S159.33,71.79,157.44,72.66Z"/><path class="cls-5" d="M149.54,55.46c-1.51.69-2.12,3.69-1.13,7.44,2.22,3.92,5.26,5.83,6.89,5.08s2.15-4.3.63-8.53C153.72,56.26,151.05,54.76,149.54,55.46Z"/><path class="cls-1" d="M156.82,71.29c-.68.31-3.78-1.27-6-6s-1.37-8.14-.69-8.45,3.78,1.28,6,6S157.49,71,156.82,71.29Z"/><path class="cls-8" d="M150.17,56.82c-.56.26-1.2,2.58-.22,6,2,3,4.15,4,4.71,3.76s1.2-2.58.22-6C152.91,57.59,150.72,56.57,150.17,56.82Z"/><path class="cls-9" d="M152.57,59.58c.42.92.34,1.86-.17,2.1s-1.27-.32-1.7-1.24-.35-1.86.17-2.1S152.14,58.66,152.57,59.58Z"/><path class="cls-6" d="M194.05,61.59c-2.52,5.5-2.17,11.07.79,12.43s7.42-2,9.94-7.5S207,55.45,204,54.09,196.58,56.09,194.05,61.59Z"/><path class="cls-4" d="M195.47,72.66c1.89.87,5.62-1.7,7.95-6.77s1.84-9.56,0-10.43-5.62,1.69-8,6.76S193.58,71.79,195.47,72.66Z"/><path class="cls-5" d="M203.37,55.46c1.51.69,2.12,3.69,1.13,7.44-2.22,3.92-5.26,5.83-6.88,5.08s-2.16-4.3-.63-8.53C199.19,56.26,201.86,54.76,203.37,55.46Z"/><path class="cls-1" d="M196.1,71.29c.67.31,3.78-1.27,6-6s1.36-8.14.68-8.45-3.78,1.28-6,6S195.42,71,196.1,71.29Z"/><path class="cls-8" d="M202.74,56.82c.56.26,1.2,2.58.22,6-2,3-4.15,4-4.71,3.76s-1.2-2.58-.21-6C200,57.59,202.19,56.57,202.74,56.82Z"/><path class="cls-9" d="M200.35,59.58c-.43.92-.35,1.86.16,2.1s1.28-.32,1.7-1.24.35-1.86-.17-2.1S200.77,58.66,200.35,59.58Z"/><text class="cls-10" transform="translate(0 258.75)">C<tspan class="cls-11" x="30.24" y="0">R</tspan><tspan x="58.98" y="0">YP</tspan><tspan class="cls-12" x="116.81" y="0">T</tspan><tspan class="cls-13" x="142.9" y="0">O</tspan><tspan class="cls-4" x="175.46" y="0">ANGELS</tspan></text></g></g></svg>